<?xml version="1.0" encoding="UTF-8"?><svg class="ldi-mi19mh" width="100" height="100" preserveAspectRatio="xMidYMid" viewBox="10 10 90 90" xmlns="http://www.w3.org/2000/svg" style="transform-origin:50px 50px 0px"><svg version="1.1" viewBox="0 0 64 64" xml:space="preserve" xmlns="http://www.w3.org/2000/svg" xmlns:xlink="http://www.w3.org/1999/xlink"> <g style="transform-origin:50px 50px 0px;transform:scale(0.6)"> <g style="transform-origin:50px 50px 0px"> <style class="ld ld-breath" style="animation-delay:-1.2s;animation-duration:1.2s;transform-origin:50px 50px 0px" type="text/css"> </style> <g class="ld ld-breath" style="animation-delay:-1.11429s;animation-duration:1.2s;transform-origin:50px 50px 0px"> <path d="m42.686 62.376h-22.765c-5.2623 0-10.117-2.3942-13.321-6.5691-3.2043-4.1747-4.2599-9.4843-2.8988-14.567l3.3775-12.605c0.59008-2.2014 2.853-3.5082 5.0536-2.9179 2.2011 0.59008 3.5074 2.8525 2.9184 5.0533l-3.3778 12.606c-0.69282 2.5849-0.15545 5.2849 1.4733 7.408 1.6298 2.1228 4.0988 3.3404 6.7743 3.3404h22.765c2.2791 0 4.1262 1.848 4.1262 4.1262 5e-7 2.2788-1.8472 4.1262-4.1262 4.1262" fill="#1F344C"/> </g> <g class="ld ld-breath" style="animation-delay:-1.02857s;animation-duration:1.2s;transform-origin:50px 50px 0px"> <path d="m19.901 49.735c-0.35367 0-0.71245-0.04599-1.0702-0.14174-2.2019-0.59008-3.5074-2.8528-2.9184-5.0533l6.4078-23.913c0.58981-2.2019 2.8514-3.5085 5.0539-2.9178 2.2019 0.58981 3.5071 2.8522 2.9181 5.0533l-6.4075 23.913c-0.49406 1.8437-2.1618 3.0596-3.9837 3.0596" fill="#FFC017"/> </g> <g class="ld ld-breath" style="animation-delay:-0.942857s;animation-duration:1.2s;transform-origin:50px 50px 0px"> <path d="m32.988 49.735c-0.35367 0-0.71218-0.04599-1.0702-0.14174-2.2019-0.59008-3.5074-2.8528-2.9181-5.0539l8.544-31.884c0.59008-2.2014 2.8512-3.5074 5.0536-2.9178 2.2019 0.59008 3.5077 2.8525 2.9184 5.0536l-8.544 31.884c-0.49406 1.8437-2.1616 3.0596-3.9837 3.0596" fill="#f80"/> </g> <g class="ld ld-breath" style="animation-delay:-0.857143s;animation-duration:1.2s;transform-origin:50px 50px 0px"> <path d="m46.075 49.735c-0.35367 0-0.71218-0.04599-1.0702-0.14174-2.2019-0.59008-3.5074-2.8528-2.9181-5.0533l10.68-39.856c0.58981-2.2016 2.8528-3.5085 5.0536-2.9176 2.2016 0.58981 3.5074 2.8522 2.9184 5.0533l-10.68 39.856c-0.49406 1.8437-2.1616 3.0596-3.9837 3.0596" fill="#C23D3D"/> </g> </g> </g> <style class="ld ld-breath" style="animation-delay:-0.342857s;animation-duration:1.2s;transform-origin:50px 50px 0px" type="text/css"> path, ellipse, circle, rect, polygon, polyline, line { stroke-width: 0; } @keyframes ld-breath { 0% { -webkit-transform: scale(0.86); transform: scale(0.86); } 50% { -webkit-transform: scale(1.06); transform: scale(1.06); } 100% { -webkit-transform: scale(0.86); transform: scale(0.86); } } @-webkit-keyframes ld-breath { 0% { -webkit-transform: scale(0.86); transform: scale(0.86); } 50% { -webkit-transform: scale(1.06); transform: scale(1.06); } 100% { -webkit-transform: scale(0.86); transform: scale(0.86); } } .ld.ld-breath { -webkit-animation: ld-breath 1s infinite; animation: ld-breath 1s infinite; } </style> </svg></svg>
