<?xml version="1.0" encoding="utf-8"?>
<!-- Generator: Adobe Illustrator 22.0.1, SVG Export Plug-In . SVG Version: 6.00 Build 0)  -->
<svg version="1.1" id="Layer_1" xmlns="http://www.w3.org/2000/svg" xmlns:xlink="http://www.w3.org/1999/xlink" x="0px" y="0px"
	 viewBox="0 0 1162.2 342.3" style="enable-background:new 0 0 1162.2 342.3;" xml:space="preserve">
<style type="text/css">
	.st0{fill:#FFC017;}
	.st1{fill:#FF8800;}
	.st2{fill:#C23D3D;}
	.st3{fill:#1F344C;}
	.st4{fill:none;}
</style>
<title>Asset 1</title>
<g id="Layer_2_1_">
	<g id="Layer_1-2">
		<path class="st0" d="M100.9,217.4c-8.5,0-15.4-6.9-15.3-15.4c0-1.3,0.2-2.6,0.5-3.9l23.8-88.9c2.2-8.2,10.6-13,18.8-10.8
			s13,10.6,10.8,18.8l0,0L115.7,206C113.9,212.7,107.8,217.4,100.9,217.4z"/>
		<path class="st1" d="M149.6,217.4c-1.4,0-2.7-0.2-4-0.5c-8.2-2.2-13-10.6-10.9-18.8c0,0,0,0,0,0l31.8-118.6
			c2.2-8.2,10.6-13,18.8-10.8s13,10.6,10.8,18.8l0,0L164.4,206C162.6,212.7,156.5,217.4,149.6,217.4z"/>
		<path class="st2" d="M198.2,217.4c-1.4,0-2.7-0.2-4-0.5c-8.2-2.2-13-10.6-10.9-18.8c0,0,0,0,0,0l39.7-148.2
			c2.3-8.1,10.8-12.9,19-10.5c7.9,2.3,12.6,10.4,10.7,18.4L213,206C211.2,212.7,205.1,217.4,198.2,217.4z"/>
		<path class="st3" d="M185.6,264.4H101c-34.5,0-62.5-27.9-62.5-62.4c0-5.5,0.7-10.9,2.1-16.2l12.6-46.9c2.2-8.2,10.6-13,18.8-10.9
			c8.2,2.2,13,10.6,10.8,18.8l0,0l-12.6,46.9c-4.6,16.9,5.5,34.4,22.4,38.9c2.7,0.7,5.5,1.1,8.3,1.1h84.6c8.5,0.2,15.2,7.3,15,15.7
			C200.4,257.6,193.8,264.2,185.6,264.4L185.6,264.4z"/>
		<path class="st3" d="M348.4,249.7h-28.6c-14.7,0-22.5-10.4-22.5-30.2v-87.9c0.1-1.4-1-2.6-2.4-2.7c-0.1,0-0.2,0-0.3,0h-9.9
			c-1.4-0.1-2.6,1-2.7,2.4c0,0.1,0,0.2,0,0.3v87.9c0,28.3,13.9,44.9,37.7,44.9h28.6c1.4,0.1,2.6-1,2.7-2.4c0-0.1,0-0.2,0-0.3v-9.4
			c0.2-1.3-0.8-2.5-2.1-2.7C348.8,249.7,348.6,249.7,348.4,249.7z M586.5,130.2h-9.9c-1.4-0.1-2.6,1-2.7,2.4c0,0.1,0,0.2,0,0.3v91.7
			c0,16-8.3,27.3-23,27.3s-23-11.2-23-27.3v-91.7c0.1-1.4-1-2.6-2.3-2.7c-0.1,0-0.2,0-0.3,0h-9.9c-1.4-0.1-2.6,1-2.7,2.4
			c0,0.1,0,0.2,0,0.3v91.7c0,16-8.3,27.3-23,27.3s-23-11.2-23-27.3v-91.7c0.1-1.4-1-2.6-2.4-2.7c-0.1,0-0.2,0-0.3,0h-9.9
			c-1.4-0.1-2.6,1-2.7,2.3c0,0.1,0,0.2,0,0.3v91.7c0,24.1,15,42,38.2,42c13.9,0,24.9-8.3,30.7-20c5.6,11.8,16.6,20,30.5,20
			c23.2,0,38.2-17.9,38.2-42v-91.7c0.1-1.4-1-2.6-2.4-2.7C586.6,130.2,586.5,130.2,586.5,130.2z M395.9,127.6
			c-17.9,0-30.9,10-36.4,25.2c-0.4,1.1,0.1,2.3,1.1,2.8l9.5,4.9c1.1,0.6,2.5,0.1,3-1c0.1-0.1,0.1-0.2,0.1-0.4
			c3.2-10.3,11.1-16.8,22.6-16.8c15.8,0,25.1,11.2,25.1,26.7v17.4h-25.9c-24.3,0-40.6,17.4-40.6,38.5c0,23.8,16.3,41.4,41.2,41.4
			c10.1,0,18.7-3,25.4-8.1v3c-0.1,1.4,1,2.6,2.4,2.7c0.1,0,0.2,0,0.3,0h9.9c1.4,0.1,2.6-1,2.7-2.4c0-0.1,0-0.2,0-0.3V169
			C436.3,145.5,420.5,127.6,395.9,127.6z M421,224.8c0,15.8-9.4,26.7-25.4,26.7c-16.3,0-25.9-11-25.9-26.7
			c0-13.1,9.6-23.8,25.4-23.8h25.9L421,224.8z"/>
		<path class="st3" d="M797.5,127.6c-17.9,0-30.9,10-36.5,25.2c-0.4,1.1,0.1,2.3,1.1,2.8l9.5,4.9c1.1,0.6,2.5,0.1,3-1
			c0.1-0.1,0.1-0.2,0.1-0.4c3.2-10.3,11.1-16.8,22.6-16.8c15.8,0,25.1,11.2,25.1,26.7v17.4h-25.9c-24.3,0-40.6,17.4-40.6,38.5
			c0,23.8,16.3,41.4,41.2,41.4c10.1,0,18.7-3,25.4-8.1v3c-0.1,1.4,1,2.6,2.4,2.7c0.1,0,0.2,0,0.3,0h9.9c1.4,0.1,2.6-1,2.7-2.4
			c0-0.1,0-0.2,0-0.3V169C837.8,145.5,822,127.6,797.5,127.6z M822.6,224.8c0,15.8-9.4,26.7-25.4,26.7c-16.3,0-25.9-11-25.9-26.7
			c0-13.1,9.6-23.8,25.4-23.8h25.9V224.8z M906.6,249.7h-3.5c-14.7,0-22.5-10.4-22.5-30.2v-74.8h22.7c1.4,0.1,2.6-1,2.7-2.4
			c0-0.1,0-0.2,0-0.3v-9.1c0.1-1.4-1-2.6-2.4-2.7c-0.1,0-0.2,0-0.3,0h-22.7V95.5c0.1-1.4-1-2.6-2.4-2.7c-0.1,0-0.2,0-0.3,0h-9.9
			c-1.4-0.1-2.6,1-2.7,2.4c0,0.1,0,0.2,0,0.3v34.7h-16.6c-1.4-0.1-2.6,1-2.7,2.4c0,0.1,0,0.2,0,0.3v9.1c-0.1,1.4,1,2.6,2.4,2.7
			c0.1,0,0.2,0,0.3,0h16.6v74.8c0,28.3,13.9,44.9,37.7,44.9h3.5c1.4,0.1,2.6-1,2.7-2.4c0-0.1,0-0.2,0-0.3v-9.4
			c0.2-1.3-0.8-2.5-2.1-2.7C907,249.7,906.8,249.7,906.6,249.7L906.6,249.7z M703.8,127.6c-13.9,0-24.8,8.3-30.5,20.1
			c-5.9-11.8-16.8-20.1-30.7-20.1c-23.2,0-38.2,17.9-38.2,42v91.7c-0.1,1.4,1,2.6,2.4,2.7c0.1,0,0.2,0,0.3,0h9.9
			c1.4,0.1,2.6-1,2.7-2.4c0-0.1,0-0.2,0-0.3v-91.7c0-16,8.3-27.3,23-27.3s23,11.2,23,27.3v91.7c-0.1,1.4,1,2.6,2.4,2.7
			c0.1,0,0.2,0,0.3,0h9.9c1.4,0.1,2.6-1,2.7-2.4c0-0.1,0-0.2,0-0.3v-91.7c0-16,8.3-27.3,23-27.3s23,11.2,23,27.3v91.7
			c-0.1,1.4,1,2.6,2.4,2.7c0.1,0,0.2,0,0.3,0h9.9c1.4,0.1,2.6-1,2.7-2.4c0-0.1,0-0.2,0-0.3v-91.7C742,145.5,727,127.6,703.8,127.6z
			 M1058.2,163.6c0-12.6,9.6-21.4,24-21.4c12.3,0,19.8,6.5,22.9,16.3c0.4,1.2,1.6,1.9,2.8,1.5c0.1,0,0.2-0.1,0.3-0.1l9.8-5
			c1-0.5,1.5-1.7,1.1-2.7c-5.1-15.3-17.5-24.6-37.8-24.6c-23.2,0-38.5,16.6-38.5,36.1c0,44.6,65.5,34.5,65.5,66.8
			c0,12.6-8,21.4-24,21.4c-17.6,0-26.7-9.1-27.5-27.3c0.2-1.3-0.8-2.5-2.1-2.7c-0.2,0-0.4,0-0.6,0h-9.9c-1.4-0.1-2.6,1-2.7,2.4
			c0,0.1,0,0.2,0,0.3c1.1,25.4,17.1,42,42.8,42c23.8,0,39.3-16.6,39.3-36.1C1123.7,184.5,1058.2,194.6,1058.2,163.6z M1030,221.9
			h-9.9c-1.3-0.2-2.5,0.8-2.7,2.1c0,0.2,0,0.4,0,0.6c-1.1,16.3-10.4,27.3-25.4,27.3c-15.8,0-25.4-11.2-25.4-27.3v-55
			c0-16,9.3-27.3,24.8-27.3c11.4,0,19.5,6,23,15.5c0.4,1.2,1.7,1.8,2.9,1.3c0.1,0,0.2-0.1,0.2-0.1l9.4-4.8c1-0.5,1.5-1.8,1.1-2.9
			c-6-14.4-19.1-23.8-36.7-23.8c-22.2,0-40,18.4-40,40.6v56.4c0,24.1,16.3,42,40.6,42c23.5,0,39.3-17.6,40.6-42
			c0.1-1.4-0.9-2.6-2.3-2.7C1030.3,221.9,1030.1,221.9,1030,221.9z M933.5,130.2h-9.9c-1.4-0.1-2.6,1-2.7,2.4c0,0.1,0,0.2,0,0.3
			v128.3c-0.1,1.4,1,2.6,2.4,2.7c0.1,0,0.2,0,0.3,0h9.9c1.4,0.1,2.6-1,2.7-2.4c0-0.1,0-0.2,0-0.3V132.9c0.1-1.4-1-2.6-2.3-2.7
			C933.7,130.2,933.6,130.2,933.5,130.2L933.5,130.2z M928.4,92c-5.5-0.2-10.2,4-10.4,9.5c0,0.3,0,0.6,0,0.9
			c-0.2,5.6,4.2,10.3,9.8,10.4c0.2,0,0.4,0,0.6,0c5.8,0,10.4-4.7,10.4-10.4c0.2-5.6-4.2-10.3-9.8-10.4C928.9,92,928.6,92,928.4,92z"
			/>
		<rect x="244.2" y="90.9" class="st4" width="879.5" height="211.4"/>
		<rect x="282.2" y="128.9" class="st4" width="841.5" height="135.5"/>
		<rect x="38.5" y="38.5" class="st4" width="1085.2" height="225.9"/>
		<rect class="st4" width="1162.2" height="341.4"/>
	</g>
</g>
</svg>
